# xmcd
#
# Track frame offsets: 
#        150
#        26746
#        42732
#        62203
#        86730
#        114367
#        128384
#        164709
#        193511
#
# Disc length: 3041 seconds
#
# Revision: 0
# Processed by: cddbd v1.5.1PL0 Copyright (c) Steve Scherf et al.
# Submitted via: ExactAudioCopy v0.95a4
#
DISCID=7b0bdf09
DTITLE=Dekadance - Happy Birthday
DYEAR=1989
DGENRE=
TTITLE0=Happy Birthday
TTITLE1=Culreb
TTITLE2=Hoch Heidecksburg
TTITLE3=Woman on the Road
TTITLE4=It's time goes by
TTITLE5=I am the Walrus
TTITLE6=Alex goes to Hollywood
TTITLE7=They had no tickets about them
TTITLE8=The contempt
EXTD=
EXTT0=
EXTT1=
EXTT2=
EXTT3=
EXTT4=
EXTT5=
EXTT6=
EXTT7=
EXTT8=
PLAYORDER=
